<mxfile host="app.diagrams.net" modified="2023-01-13T00:57:18.551Z" agent="5.0 (Windows NT 10.0; Win64; x64) AppleWebKit/537.36 (KHTML, like Gecko) Chrome/108.0.0.0 Safari/537.36" version="20.8.4" etag="KOJD7B88UugIP0Qf6Htx" type="github">
  <diagram id="KKff5m6-dpVFR8wdqusB" name="Page-1">
    <mxGraphModel dx="1434" dy="774" grid="1" gridSize="10" guides="1" tooltips="1" connect="1" arrows="1" fold="1" page="1" pageScale="1" pageWidth="850" pageHeight="1100" math="0" shadow="0">
      <root>
        <mxCell id="0" />
        <mxCell id="1" parent="0" />
        <mxCell id="0CxJfPneNwHeq2YsakVp-1" value="" style="rounded=0;whiteSpace=wrap;html=1;" vertex="1" parent="1">
          <mxGeometry x="10" y="10" width="830" height="140" as="geometry" />
        </mxCell>
        <mxCell id="0CxJfPneNwHeq2YsakVp-2" value="" style="rounded=0;whiteSpace=wrap;html=1;" vertex="1" parent="1">
          <mxGeometry x="20" y="20" width="810" height="30" as="geometry" />
        </mxCell>
        <mxCell id="0CxJfPneNwHeq2YsakVp-3" value="" style="rounded=0;whiteSpace=wrap;html=1;" vertex="1" parent="1">
          <mxGeometry x="20" y="50" width="810" height="30" as="geometry" />
        </mxCell>
        <mxCell id="0CxJfPneNwHeq2YsakVp-4" value="" style="rounded=0;whiteSpace=wrap;html=1;" vertex="1" parent="1">
          <mxGeometry x="20" y="80" width="810" height="30" as="geometry" />
        </mxCell>
        <mxCell id="0CxJfPneNwHeq2YsakVp-6" value="" style="rounded=0;whiteSpace=wrap;html=1;" vertex="1" parent="1">
          <mxGeometry x="20" y="110" width="810" height="30" as="geometry" />
        </mxCell>
        <mxCell id="0CxJfPneNwHeq2YsakVp-7" value="" style="rounded=0;whiteSpace=wrap;html=1;" vertex="1" parent="1">
          <mxGeometry x="10" y="160" width="830" height="20" as="geometry" />
        </mxCell>
        <mxCell id="0CxJfPneNwHeq2YsakVp-9" value="" style="rounded=0;whiteSpace=wrap;html=1;fillColor=#f8cecc;strokeColor=#b85450;" vertex="1" parent="1">
          <mxGeometry x="10" y="190" width="830" height="610" as="geometry" />
        </mxCell>
        <mxCell id="0CxJfPneNwHeq2YsakVp-10" value="" style="rounded=0;whiteSpace=wrap;html=1;fillColor=#e1d5e7;strokeColor=#9673a6;" vertex="1" parent="1">
          <mxGeometry x="20" y="200" width="330" height="590" as="geometry" />
        </mxCell>
        <mxCell id="0CxJfPneNwHeq2YsakVp-11" value="" style="rounded=0;whiteSpace=wrap;html=1;fillColor=#e1d5e7;strokeColor=#9673a6;" vertex="1" parent="1">
          <mxGeometry x="360" y="200" width="330" height="590" as="geometry" />
        </mxCell>
        <mxCell id="0CxJfPneNwHeq2YsakVp-12" value="" style="rounded=0;whiteSpace=wrap;html=1;fillColor=#e1d5e7;strokeColor=#9673a6;" vertex="1" parent="1">
          <mxGeometry x="700" y="200" width="130" height="590" as="geometry" />
        </mxCell>
        <mxCell id="0CxJfPneNwHeq2YsakVp-13" value="" style="rounded=0;whiteSpace=wrap;html=1;fillColor=#fff2cc;strokeColor=#d6b656;" vertex="1" parent="1">
          <mxGeometry x="30" y="210" width="30" height="570" as="geometry" />
        </mxCell>
        <mxCell id="0CxJfPneNwHeq2YsakVp-14" value="" style="rounded=0;whiteSpace=wrap;html=1;fillColor=#fff2cc;strokeColor=#d6b656;" vertex="1" parent="1">
          <mxGeometry x="310" y="210" width="30" height="570" as="geometry" />
        </mxCell>
        <mxCell id="0CxJfPneNwHeq2YsakVp-15" value="" style="rounded=0;whiteSpace=wrap;html=1;fillColor=#fff2cc;strokeColor=#d6b656;" vertex="1" parent="1">
          <mxGeometry x="70" y="210" width="230" height="570" as="geometry" />
        </mxCell>
        <mxCell id="0CxJfPneNwHeq2YsakVp-16" value="" style="rounded=0;whiteSpace=wrap;html=1;fillColor=#fff2cc;strokeColor=#d6b656;" vertex="1" parent="1">
          <mxGeometry x="370" y="210" width="310" height="100" as="geometry" />
        </mxCell>
        <mxCell id="0CxJfPneNwHeq2YsakVp-17" value="" style="rounded=0;whiteSpace=wrap;html=1;fillColor=#fff2cc;strokeColor=#d6b656;" vertex="1" parent="1">
          <mxGeometry x="370" y="320" width="310" height="230" as="geometry" />
        </mxCell>
        <mxCell id="0CxJfPneNwHeq2YsakVp-18" value="" style="rounded=0;whiteSpace=wrap;html=1;fillColor=#fff2cc;strokeColor=#d6b656;" vertex="1" parent="1">
          <mxGeometry x="370" y="560" width="310" height="220" as="geometry" />
        </mxCell>
      </root>
    </mxGraphModel>
  </diagram>
</mxfile>
